<svg width="64" height="34" viewBox="0 0 64 34" fill="none" xmlns="http://www.w3.org/2000/svg">
<path d="M13.5 11L13.3712 11.4831L13.5 11ZM40.5 21L40.6643 21.4722L40.5 21ZM62.4872 0.88757C62.4251 0.6185 62.1566 0.450711 61.8876 0.512804L57.5028 1.52467C57.2337 1.58677 57.066 1.85523 57.128 2.1243C57.1901 2.39337 57.4586 2.56116 57.7277 2.49906L61.6252 1.59963L62.5247 5.49719C62.5868 5.76626 62.8552 5.93405 63.1243 5.87196C63.3934 5.80986 63.5612 5.5414 63.4991 5.27233L62.4872 0.88757ZM0.987366 33.1117C1.05634 32.8107 1.13011 32.4987 1.20853 32.1771L0.236993 31.9402C0.157506 32.2662 0.0826733 32.5827 0.0126338 32.8883L0.987366 33.1117ZM1.68877 30.309C1.85101 29.7077 2.02602 29.0858 2.21311 28.4501L1.25379 28.1678C1.06453 28.8109 0.887475 29.44 0.7233 30.0484L1.68877 30.309ZM2.77937 26.6037C2.97292 25.9976 3.1762 25.3852 3.38864 24.7719L2.44372 24.4446C2.22848 25.066 2.02265 25.6861 1.82675 26.2996L2.77937 26.6037ZM4.04416 22.9577C4.27169 22.3543 4.50758 21.7553 4.7513 21.1657L3.82716 20.7837C3.57913 21.3836 3.3394 21.9924 3.10846 22.6049L4.04416 22.9577ZM5.51827 19.4026C5.7904 18.8092 6.07032 18.2324 6.35739 17.6781L5.46941 17.2182C5.17422 17.7882 4.88732 18.3794 4.60928 18.9858L5.51827 19.4026ZM7.28709 16.0088C7.62926 15.4405 7.97876 14.9107 8.3345 14.4272L7.52903 13.8345C7.15226 14.3466 6.78582 14.9027 6.43038 15.493L7.28709 16.0088ZM9.53615 13.0039C10.0075 12.5286 10.4795 12.1516 10.949 11.8816L10.4505 11.0148C9.8858 11.3395 9.34414 11.7774 8.82615 12.2996L9.53615 13.0039ZM12.553 11.3871C12.822 11.3788 13.0944 11.4093 13.3712 11.4831L13.6288 10.5169C13.2589 10.4182 12.8894 10.3762 12.5221 10.3875L12.553 11.3871ZM13.3712 11.4831C13.6903 11.5682 14.0123 11.6729 14.3375 11.7955L14.6902 10.8598C14.3371 10.7267 13.9834 10.6114 13.6288 10.5169L13.3712 11.4831ZM16.2138 12.6668C16.8052 12.987 17.405 13.349 18.0155 13.7416L18.5564 12.9004C17.9312 12.4984 17.3092 12.1227 16.6898 11.7874L16.2138 12.6668ZM19.7749 14.9251C20.3475 15.3233 20.927 15.7348 21.5179 16.1528L22.0954 15.3364C21.5068 14.9201 20.9227 14.5052 20.3457 14.1041L19.7749 14.9251ZM23.2756 17.3815C23.8641 17.785 24.4629 18.1846 25.0724 18.5713L25.6081 17.7269C25.0114 17.3483 24.4229 16.9556 23.841 16.5567L23.2756 17.3815ZM26.9311 19.6819C27.5651 20.035 28.2118 20.3667 28.8718 20.6676L29.2866 19.7577C28.6545 19.4695 28.0319 19.1504 27.4177 18.8083L26.9311 19.6819ZM30.9066 21.4734C31.6002 21.7049 32.3088 21.8959 33.0333 22.0367L33.2241 21.0551C32.5461 20.9233 31.8795 20.7439 31.2233 20.5248L30.9066 21.4734ZM35.2275 22.2978C35.9506 22.3285 36.6878 22.3047 37.4398 22.2182L37.3255 21.2247C36.6268 21.3051 35.942 21.3273 35.27 21.2987L35.2275 22.2978ZM39.6096 21.7989C39.9583 21.7042 40.3099 21.5955 40.6643 21.4722L40.3357 20.5278C40.0029 20.6435 39.6736 20.7453 39.3475 20.8339L39.6096 21.7989ZM40.6643 21.4722C41.0053 21.3536 41.3456 21.2241 41.6849 21.0844L41.3042 20.1597C40.9814 20.2926 40.6585 20.4155 40.3357 20.5278L40.6643 21.4722ZM43.6539 20.1582C44.2847 19.8254 44.9106 19.4614 45.5298 19.071L44.9965 18.2251C44.3971 18.603 43.7935 18.954 43.1873 19.2738L43.6539 20.1582ZM47.3199 17.8588C47.8984 17.4405 48.4697 17.0021 49.0324 16.5475L48.404 15.7696C47.8541 16.2138 47.297 16.6414 46.734 17.0485L47.3199 17.8588ZM50.6751 15.1558C51.2116 14.6802 51.7386 14.1927 52.2546 13.6971L51.5619 12.9759C51.0549 13.4628 50.5377 13.9412 50.0118 14.4074L50.6751 15.1558ZM53.7764 12.1817C54.2792 11.6631 54.7692 11.1401 55.2449 10.6166L54.5048 9.94406C54.036 10.46 53.5534 10.9752 53.0585 11.4855L53.7764 12.1817ZM56.6638 9.00655C57.1393 8.45051 57.5968 7.89857 58.0345 7.35567L57.256 6.72803C56.8241 7.2637 56.3728 7.80821 55.9038 8.35666L56.6638 9.00655ZM59.3558 5.66765C59.8099 5.06999 60.2351 4.49109 60.6288 3.93849L59.8143 3.35829C59.4266 3.90255 59.0074 4.47321 58.5595 5.06273L59.3558 5.66765ZM61.8445 2.16703C62.0527 1.85098 62.2461 1.5496 62.424 1.265L61.576 0.735001C61.4026 1.01243 61.2135 1.30712 61.0094 1.61699L61.8445 2.16703Z" fill="black"/>
</svg>
