<svg width="1234" height="323" viewBox="0 0 1234 323" fill="none" xmlns="http://www.w3.org/2000/svg">
<path d="M480.5 83C624.1 85.4 736.333 116.333 774.5 131.5H832.298C832.475 128.294 834.156 124.203 841.5 122C851.5 119 878.5 122 880.5 122C882.5 122 895 126 885 119C875 112 1074.5 131.5 1093.5 131.5C1112.5 131.5 1233.5 141 1233 161.5C1232.5 182 1097.5 196 1093.5 194C1089.5 192 1075 219.5 989.5 222.5C921.1 224.9 871.667 225.5 855.5 225.5C807 220.167 698.5 209.5 652.5 209.5C606.5 209.5 524.333 234.167 489 246.5L299.5 298L-1 323V0.5C99.6667 27 336.9 80.6 480.5 83Z" fill="white" fill-opacity="0.28"/>
</svg>
